HIERARCHY
ROOT Root
{
	OFFSET 0.00000 0.00000 0.00000
	CHANNELS 6 Xposition Yposition Zposition Zrotation Xrotation Yrotation
	JOINT Hip
	{
		OFFSET 0 0 0	
		CHANNELS 3 Zrotation Xrotation Yrotation
		JOINT Tummy
		{
			OFFSET 0 0.04 0	
			CHANNELS 3 Zrotation Xrotation Yrotation
			JOINT ChestBottom
			{
				OFFSET 0 0.194 0	
				CHANNELS 3 Zrotation Xrotation Yrotation
				JOINT ChestTop
				{
					OFFSET 0 0.166 0	
					CHANNELS 3 Zrotation Xrotation Yrotation
					JOINT LeftCollar
					{
						OFFSET 0 0.1 0	
						CHANNELS 3 Zrotation Xrotation Yrotation
						JOINT LeftUpperArm
						{
							OFFSET 0.156 -0.02 0.03	
							CHANNELS 3 Zrotation Xrotation Yrotation
							JOINT LeftForeArm
							{
								OFFSET 0.035 -0.27 -0.01	
								CHANNELS 3 Zrotation Xrotation Yrotation
								JOINT LeftHand
								{
									OFFSET 0.01 -0.27 0.01	
									CHANNELS 3 Zrotation Xrotation Yrotation
									End Site
									{
										OFFSET 0 -0.15 0
									}
								}
							}
						}
					}
					JOINT RightCollar
					{
						OFFSET 0 0.1 0	
						CHANNELS 3 Zrotation Xrotation Yrotation
						JOINT RightUpperArm
						{
							OFFSET -0.156 -0.02 0.03	
							CHANNELS 3 Zrotation Xrotation Yrotation
							JOINT RightForeArm
							{
								OFFSET -0.035 -0.27 -0.01	
								CHANNELS 3 Zrotation Xrotation Yrotation
								JOINT RightHand
								{
									OFFSET -0.01 -0.27 0.01	
									CHANNELS 3 Zrotation Xrotation Yrotation
									End Site
									{
										OFFSET 0 -0.15 0
									}
								}
							}
						}
					}
					JOINT Neck
					{
						OFFSET 0 0.1 0	
						CHANNELS 3 Zrotation Xrotation Yrotation
						JOINT Head
						{
							OFFSET 0 0.127 0.03	
							CHANNELS 3 Zrotation Xrotation Yrotation
							End Site
							{
								OFFSET 0 0.127 0.03
							}
						}
					}
				}
			}
		}
	}
	JOINT LeftHip
	{
		OFFSET 0 0 0	
		CHANNELS 3 Zrotation Xrotation Yrotation
		JOINT LeftThigh
		{
			OFFSET 0.088 -0.06 0	
			CHANNELS 3 Zrotation Xrotation Yrotation
			JOINT LeftLowerLeg
			{
				OFFSET 0 -0.39 0.02	
				CHANNELS 3 Zrotation Xrotation Yrotation
				JOINT LeftFootTop
				{
					OFFSET 0 -0.43 -0.02	
					CHANNELS 3 Zrotation Xrotation Yrotation
					JOINT LeftFootFront
					{
						OFFSET 0 -0.07 0.085	
						CHANNELS 3 Zrotation Xrotation Yrotation
						End Site
						{
							OFFSET 0 -0.005 0.09
						}
					}
				}
				JOINT LeftHeel
				{
					OFFSET 0 -0.43 -0.02	
					CHANNELS 3 Zrotation Xrotation Yrotation
					End Site
					{
						OFFSET 0 -0.075 -0.05
					}
				}
			}
		}
	}
	JOINT RightHip
	{
		OFFSET 0 0 0	
		CHANNELS 3 Zrotation Xrotation Yrotation
		JOINT RightThigh
		{
			OFFSET -0.088 -0.06 0	
			CHANNELS 3 Zrotation Xrotation Yrotation
			JOINT RightLowerLeg
			{
				OFFSET 0 -0.39 0.02	
				CHANNELS 3 Zrotation Xrotation Yrotation
				JOINT RightFootTop
				{
					OFFSET 0 -0.43 -0.02	
					CHANNELS 3 Zrotation Xrotation Yrotation
					JOINT RightFootFront
					{
						OFFSET 0 -0.07 0.085	
						CHANNELS 3 Zrotation Xrotation Yrotation
						End Site
						{
							OFFSET 0 -0.005 0.09
						}
					}
				}
				JOINT RightHeel
				{
					OFFSET 0 -0.43 -0.02	
					CHANNELS 3 Zrotation Xrotation Yrotation
					End Site
					{
						OFFSET 0 -0.075 -0.05
					}
				}
			}
		}
	}
}
MOTION
Frames: 33
Frame Time: 0.05
0 0.955 0 -0 0 -0 -0 0 -0 -0 0 -0 -137.58 -42.044 59.134 -0 0 -0 -0 0 -0 -80.713 -74.97 -134.57 28.727 -26.497 23.641 -0 0 -0 -0 0 -0 108.41 -83.179 171.42 -16.73 3.4807 -30.479 -0 0 -0 -0 0 -0 -0 0 -0 -0 0 -0 -0 0 -0 -0 0 -0 -0 0 -0 -0 0 -0 -0 0 -0 -0 0 -0 -0 0 -0 -0 0 -0 -0 0 -0 -0 0 -0 -0 0 -0 
0 0.955 0 -0 0 -0 -0 0 -0 -0 0 -0 -136.59 -43.918 59.518 -0 0 -0 -0 0 -0 -77.854 -73.768 -131.66 27.953 -24.868 17.746 -0 0 -0 -0 0 -0 108.5 -84.919 171.92 -12.502 2.1953 -35.623 -0 0 -0 -0 0 -0 -0 0 -0 -0 0 -0 -0 0 -0 -0 0 -0 -0 0 -0 -0 0 -0 -0 0 -0 -0 0 -0 -0 0 -0 -0 0 -0 -0 0 -0 -0 0 -0 -0 0 -0 
0 0.955 0 -0 0 -0 -0 0 -0 -0 0 -0 -138.55 -43.505 55.767 -0 0 -0 -0 0 -0 -91.627 -78.896 -150.63 27.444 -21.842 21.531 -0 0 -0 -0 0 -0 145.57 -83.704 -147.1 -9.5964 6.4324 -31.926 -0 0 -0 -0 0 -0 -0 0 -0 -0 0 -0 -0 0 -0 -0 0 -0 -0 0 -0 -0 0 -0 -0 0 -0 -0 0 -0 -0 0 -0 -0 0 -0 -0 0 -0 -0 0 -0 -0 0 -0 
0 0.955 0 -0 0 -0 -0 0 -0 -0 0 -0 -135 -47.985 57.457 -0 0 -0 -0 0 -0 -85.103 -75.454 -142.86 30.078 -20.084 19.743 -0 0 -0 -0 0 -0 -162.22 -87.538 -91.113 -8.4191 6.0109 -31.428 -0 0 -0 -0 0 -0 -0 0 -0 -0 0 -0 -0 0 -0 -0 0 -0 -0 0 -0 -0 0 -0 -0 0 -0 -0 0 -0 -0 0 -0 -0 0 -0 -0 0 -0 -0 0 -0 -0 0 -0 
0 0.955 0 -0 0 -0 -0 0 -0 -0 0 -0 -127.71 -52.455 60.642 -0 0 -0 -0 0 -0 -74.75 -73.984 -129.8 29.852 -19.871 18.538 -0 0 -0 -0 0 -0 -47.639 -89.14 23.346 -8.0066 4.241 -29.241 -0 0 -0 -0 0 -0 -0 0 -0 -0 0 -0 -0 0 -0 -0 0 -0 -0 0 -0 -0 0 -0 -0 0 -0 -0 0 -0 -0 0 -0 -0 0 -0 -0 0 -0 -0 0 -0 -0 0 -0 
0 0.955 0 -0 0 -0 -0 0 -0 -0 0 -0 -120.84 -55.938 65.352 -0 0 -0 -0 0 -0 -57.996 -72.11 -112.31 31.745 -22.522 17.2 -0 0 -0 -0 0 -0 -6.5558 -86.913 61.173 -3.9706 -0.71949 -32.595 -0 0 -0 -0 0 -0 -0 0 -0 -0 0 -0 -0 0 -0 -0 0 -0 -0 0 -0 -0 0 -0 -0 0 -0 -0 0 -0 -0 0 -0 -0 0 -0 -0 0 -0 -0 0 -0 -0 0 -0 
0 0.955 0 -0 0 -0 -0 0 -0 -0 0 -0 -109.59 -60.75 75.918 -0 0 -0 -0 0 -0 -44.634 -66.124 -98.693 32.719 -27.565 16.499 -0 0 -0 -0 0 -0 -9.7731 -80.608 55.283 -2.4001 -1.6349 -26.947 -0 0 -0 -0 0 -0 -0 0 -0 -0 0 -0 -0 0 -0 -0 0 -0 -0 0 -0 -0 0 -0 -0 0 -0 -0 0 -0 -0 0 -0 -0 0 -0 -0 0 -0 -0 0 -0 -0 0 -0 
0 0.955 0 -0 0 -0 -0 0 -0 -0 0 -0 -96.666 -63.473 86.704 -0 0 -0 -0 0 -0 -37.185 -60.285 -86.266 31.239 -34.647 12.044 -0 0 -0 -0 0 -0 -3.1072 -74.404 62.205 -3.3797 1.0316 -18.635 -0 0 -0 -0 0 -0 -0 0 -0 -0 0 -0 -0 0 -0 -0 0 -0 -0 0 -0 -0 0 -0 -0 0 -0 -0 0 -0 -0 0 -0 -0 0 -0 -0 0 -0 -0 0 -0 -0 0 -0 
0 0.955 0 -0 0 -0 -0 0 -0 -0 0 -0 -79.629 -63.968 100.88 -0 0 -0 -0 0 -0 -31.034 -53.391 -73.262 26.394 -41.622 5.5253 -0 0 -0 -0 0 -0 1.9592 -66.488 67.312 -3.9776 1.0587 -16.86 -0 0 -0 -0 0 -0 -0 0 -0 -0 0 -0 -0 0 -0 -0 0 -0 -0 0 -0 -0 0 -0 -0 0 -0 -0 0 -0 -0 0 -0 -0 0 -0 -0 0 -0 -0 0 -0 -0 0 -0 
0 0.955 0 -0 0 -0 -0 0 -0 -0 0 -0 -63.646 -62.807 115.7 -0 0 -0 -0 0 -0 -27.245 -45.9 -66.173 20.913 -45.095 0.0076642 -0 0 -0 -0 0 -0 4.0611 -58.951 65.57 -1.0721 -2.2553 -20.51 -0 0 -0 -0 0 -0 -0 0 -0 -0 0 -0 -0 0 -0 -0 0 -0 -0 0 -0 -0 0 -0 -0 0 -0 -0 0 -0 -0 0 -0 -0 0 -0 -0 0 -0 -0 0 -0 -0 0 -0 
0 0.955 0 -0 0 -0 -0 0 -0 -0 0 -0 -50.688 -60.398 128.34 -0 0 -0 -0 0 -0 -21.955 -39.211 -64.143 19.888 -45.649 -0.1796 -0 0 -0 -0 0 -0 5.9618 -52.488 60.172 3.4871 -6.0914 -23.564 -0 0 -0 -0 0 -0 -0 0 -0 -0 0 -0 -0 0 -0 -0 0 -0 -0 0 -0 -0 0 -0 -0 0 -0 -0 0 -0 -0 0 -0 -0 0 -0 -0 0 -0 -0 0 -0 -0 0 -0 
0 0.955 0 -0 0 -0 -0 0 -0 -0 0 -0 -40.217 -56.693 138.08 -0 0 -0 -0 0 -0 -17.073 -33.097 -64.641 21.244 -43.792 1.7726 -0 0 -0 -0 0 -0 7.9498 -45.976 54.951 5.5476 -6.645 -20.096 -0 0 -0 -0 0 -0 -0 0 -0 -0 0 -0 -0 0 -0 -0 0 -0 -0 0 -0 -0 0 -0 -0 0 -0 -0 0 -0 -0 0 -0 -0 0 -0 -0 0 -0 -0 0 -0 -0 0 -0 
0 0.955 0 -0 0 -0 -0 0 -0 -0 0 -0 -32.12 -51.903 145.77 -0 0 -0 -0 0 -0 -14.042 -28.384 -64.345 19.586 -40.603 -1.0238 -0 0 -0 -0 0 -0 7.5347 -40.315 50.692 5.6156 -4.5941 -12.454 -0 0 -0 -0 0 -0 -0 0 -0 -0 0 -0 -0 0 -0 -0 0 -0 -0 0 -0 -0 0 -0 -0 0 -0 -0 0 -0 -0 0 -0 -0 0 -0 -0 0 -0 -0 0 -0 -0 0 -0 
0 0.955 0 -0 0 -0 -0 0 -0 -0 0 -0 -25.706 -46.914 151.46 -0 0 -0 -0 0 -0 -9.9384 -24.951 -58.881 15.081 -39.873 -8.8462 -0 0 -0 -0 0 -0 5.0872 -34.544 48.714 5.8146 -5.0015 -6.4689 -0 0 -0 -0 0 -0 -0 0 -0 -0 0 -0 -0 0 -0 -0 0 -0 -0 0 -0 -0 0 -0 -0 0 -0 -0 0 -0 -0 0 -0 -0 0 -0 -0 0 -0 -0 0 -0 -0 0 -0 
0 0.955 0 -0 0 -0 -0 0 -0 -0 0 -0 -19.636 -41.846 155.68 -0 0 -0 -0 0 -0 -3.8191 -22.646 -51.34 8.6614 -41.141 -15.068 -0 0 -0 -0 0 -0 2.4268 -29.264 48.123 7.4002 -8.4387 -2.9793 -0 0 -0 -0 0 -0 -0 0 -0 -0 0 -0 -0 0 -0 -0 0 -0 -0 0 -0 -0 0 -0 -0 0 -0 -0 0 -0 -0 0 -0 -0 0 -0 -0 0 -0 -0 0 -0 -0 0 -0 
0 0.955 0 -0 0 -0 -0 0 -0 -0 0 -0 -13.814 -36.481 157.9 -0 0 -0 -0 0 -0 3.0219 -20.769 -44.442 3.1925 -41.342 -16.315 -0 0 -0 -0 0 -0 0.12406 -25.081 46.467 11.058 -13.034 1.1056 -0 0 -0 -0 0 -0 -0 0 -0 -0 0 -0 -0 0 -0 -0 0 -0 -0 0 -0 -0 0 -0 -0 0 -0 -0 0 -0 -0 0 -0 -0 0 -0 -0 0 -0 -0 0 -0 -0 0 -0 
0 0.955 0 -0 0 -0 -0 0 -0 -0 0 -0 -9.2236 -30.861 158.36 -0 0 -0 -0 0 -0 9.3861 -17.43 -38.509 -0.073716 -40.913 -13.671 -0 0 -0 -0 0 -0 -2.9847 -21.898 42.213 16.313 -17.696 6.7606 -0 0 -0 -0 0 -0 -0 0 -0 -0 0 -0 -0 0 -0 -0 0 -0 -0 0 -0 -0 0 -0 -0 0 -0 -0 0 -0 -0 0 -0 -0 0 -0 -0 0 -0 -0 0 -0 -0 0 -0 
0 0.955 0 -0 0 -0 -0 0 -0 -0 0 -0 -5.9481 -25.267 157.36 -0 0 -0 -0 0 -0 13.442 -13.278 -32.383 -2.4176 -38.953 -10.406 -0 0 -0 -0 0 -0 -6.9134 -19.413 36.628 21.755 -21.555 12.223 -0 0 -0 -0 0 -0 -0 0 -0 -0 0 -0 -0 0 -0 -0 0 -0 -0 0 -0 -0 0 -0 -0 0 -0 -0 0 -0 -0 0 -0 -0 0 -0 -0 0 -0 -0 0 -0 -0 0 -0 
0 0.955 0 -0 0 -0 -0 0 -0 -0 0 -0 -3.9467 -20.391 154.84 -0 0 -0 -0 0 -0 15.789 -9.8446 -23.304 -4.5417 -34.653 -11.846 -0 0 -0 -0 0 -0 -11.451 -17.669 30.52 25.898 -25.244 18.213 -0 0 -0 -0 0 -0 -0 0 -0 -0 0 -0 -0 0 -0 -0 0 -0 -0 0 -0 -0 0 -0 -0 0 -0 -0 0 -0 -0 0 -0 -0 0 -0 -0 0 -0 -0 0 -0 -0 0 -0 
0 0.955 0 -0 0 -0 -0 0 -0 -0 0 -0 -2.6666 -16.576 150.93 -0 0 -0 -0 0 -0 17.627 -7.6382 -11.648 -4.21 -29.593 -17.644 -0 0 -0 -0 0 -0 -16.03 -17.247 23.214 29.708 -28.837 25.267 -0 0 -0 -0 0 -0 -0 0 -0 -0 0 -0 -0 0 -0 -0 0 -0 -0 0 -0 -0 0 -0 -0 0 -0 -0 0 -0 -0 0 -0 -0 0 -0 -0 0 -0 -0 0 -0 -0 0 -0 
0 0.955 0 -0 0 -0 -0 0 -0 -0 0 -0 -2.457 -13.67 147.04 -0 0 -0 -0 0 -0 19.426 -7.7902 -1.1734 -1.8162 -27.82 -23.99 -0 0 -0 -0 0 -0 -22.283 -17.634 13.156 37.12 -32.212 31.935 -0 0 -0 -0 0 -0 -0 0 -0 -0 0 -0 -0 0 -0 -0 0 -0 -0 0 -0 -0 0 -0 -0 0 -0 -0 0 -0 -0 0 -0 -0 0 -0 -0 0 -0 -0 0 -0 -0 0 -0 
0 0.955 0 -0 0 -0 -0 0 -0 -0 0 -0 -2.5792 -11.652 143.49 -0 0 -0 -0 0 -0 22.618 -10.486 4.0817 1.3678 -32.253 -23.242 -0 0 -0 -0 0 -0 -30.357 -19.188 1.5537 48.963 -33.992 38.3 -0 0 -0 -0 0 -0 -0 0 -0 -0 0 -0 -0 0 -0 -0 0 -0 -0 0 -0 -0 0 -0 -0 0 -0 -0 0 -0 -0 0 -0 -0 0 -0 -0 0 -0 -0 0 -0 -0 0 -0 
0 0.955 0 -0 0 -0 -0 0 -0 -0 0 -0 -2.9909 -10.633 140.15 -0 0 -0 -0 0 -0 26.263 -15.806 5.3462 7.8463 -42.996 -17.236 -0 0 -0 -0 0 -0 -39.294 -22.074 -9.9618 60.666 -35.936 44.516 -0 0 -0 -0 0 -0 -0 0 -0 -0 0 -0 -0 0 -0 -0 0 -0 -0 0 -0 -0 0 -0 -0 0 -0 -0 0 -0 -0 0 -0 -0 0 -0 -0 0 -0 -0 0 -0 -0 0 -0 
0 0.955 0 -0 0 -0 -0 0 -0 -0 0 -0 -2.8885 -9.5588 137.15 -0 0 -0 -0 0 -0 29.15 -24.175 5.4054 16.08 -53.548 -15.821 -0 0 -0 -0 0 -0 -47.351 -25.104 -19.366 72.228 -38.876 50.284 -0 0 -0 -0 0 -0 -0 0 -0 -0 0 -0 -0 0 -0 -0 0 -0 -0 0 -0 -0 0 -0 -0 0 -0 -0 0 -0 -0 0 -0 -0 0 -0 -0 0 -0 -0 0 -0 -0 0 -0 
0 0.955 0 -0 0 -0 -0 0 -0 -0 0 -0 -1.5434 -8.1892 134.18 -0 0 -0 -0 0 -0 30.598 -35.312 4.4467 19.28 -62.951 -21.047 -0 0 -0 -0 0 -0 -53.274 -28.718 -25.736 83.544 -42.167 55.547 -0 0 -0 -0 0 -0 -0 0 -0 -0 0 -0 -0 0 -0 -0 0 -0 -0 0 -0 -0 0 -0 -0 0 -0 -0 0 -0 -0 0 -0 -0 0 -0 -0 0 -0 -0 0 -0 -0 0 -0 
0 0.955 0 -0 0 -0 -0 0 -0 -0 0 -0 0.33258 -6.9076 130.78 -0 0 -0 -0 0 -0 30.585 -48.778 3.6276 -2.0519 -69.614 -48.045 -0 0 -0 -0 0 -0 -58.068 -34.367 -30.262 95.176 -43.958 59.233 -0 0 -0 -0 0 -0 -0 0 -0 -0 0 -0 -0 0 -0 -0 0 -0 -0 0 -0 -0 0 -0 -0 0 -0 -0 0 -0 -0 0 -0 -0 0 -0 -0 0 -0 -0 0 -0 -0 0 -0 
0 0.955 0 -0 0 -0 -0 0 -0 -0 0 -0 1.8745 -5.4883 127.38 -0 0 -0 -0 0 -0 24.446 -62.268 -2.2084 -32.174 -66.586 -83.325 -0 0 -0 -0 0 -0 -64.035 -41.528 -34.84 106.49 -44.234 63.747 -0 0 -0 -0 0 -0 -0 0 -0 -0 0 -0 -0 0 -0 -0 0 -0 -0 0 -0 -0 0 -0 -0 0 -0 -0 0 -0 -0 0 -0 -0 0 -0 -0 0 -0 -0 0 -0 -0 0 -0 
0 0.955 0 -0 0 -0 -0 0 -0 -0 0 -0 2.6688 -4.5487 123.52 -0 0 -0 -0 0 -0 4.732 -72.375 -22.888 -46.438 -59.474 -101.53 -0 0 -0 -0 0 -0 -71.487 -50.287 -41.101 114.13 -45.157 69.95 -0 0 -0 -0 0 -0 -0 0 -0 -0 0 -0 -0 0 -0 -0 0 -0 -0 0 -0 -0 0 -0 -0 0 -0 -0 0 -0 -0 0 -0 -0 0 -0 -0 0 -0 -0 0 -0 -0 0 -0 
0 0.955 0 -0 0 -0 -0 0 -0 -0 0 -0 0.93279 -3.117 118.61 -0 0 -0 -0 0 -0 -31.178 -77.061 -61.584 -55.255 -52.387 -108.53 -0 0 -0 -0 0 -0 -84.866 -60.26 -51.478 119.51 -43.985 75.061 -0 0 -0 -0 0 -0 -0 0 -0 -0 0 -0 -0 0 -0 -0 0 -0 -0 0 -0 -0 0 -0 -0 0 -0 -0 0 -0 -0 0 -0 -0 0 -0 -0 0 -0 -0 0 -0 -0 0 -0 
0 0.955 0 -0 0 -0 -0 0 -0 -0 0 -0 -1.4055 -0.21686 113.58 -0 0 -0 -0 0 -0 -60.467 -75.866 -94.847 -60.339 -44.777 -110.55 -0 0 -0 -0 0 -0 -104.24 -68.247 -63.893 124.46 -41.499 81.468 -0 0 -0 -0 0 -0 -0 0 -0 -0 0 -0 -0 0 -0 -0 0 -0 -0 0 -0 -0 0 -0 -0 0 -0 -0 0 -0 -0 0 -0 -0 0 -0 -0 0 -0 -0 0 -0 -0 0 -0 
0 0.955 0 -0 0 -0 -0 0 -0 -0 0 -0 -2.3098 2.0491 109.51 -0 0 -0 -0 0 -0 -71.995 -73.123 -109.67 -65.57 -42.677 -106.82 -0 0 -0 -0 0 -0 -122.24 -72.852 -74.687 127.47 -40.838 88.193 -0 0 -0 -0 0 -0 -0 0 -0 -0 0 -0 -0 0 -0 -0 0 -0 -0 0 -0 -0 0 -0 -0 0 -0 -0 0 -0 -0 0 -0 -0 0 -0 -0 0 -0 -0 0 -0 -0 0 -0 
0 0.955 0 -0 0 -0 -0 0 -0 -0 0 -0 -4.1076 4.1208 106.62 -0 0 -0 -0 0 -0 -77.604 -70.961 -111 -66.761 -37.054 -108.61 -0 0 -0 -0 0 -0 -137.38 -73.315 -86.128 130.61 -41.487 89.76 -0 0 -0 -0 0 -0 -0 0 -0 -0 0 -0 -0 0 -0 -0 0 -0 -0 0 -0 -0 0 -0 -0 0 -0 -0 0 -0 -0 0 -0 -0 0 -0 -0 0 -0 -0 0 -0 -0 0 -0 
0 0.955 0 -0 0 -0 -0 0 -0 -0 0 -0 -4.9396 5.8891 103.59 -0 0 -0 -0 0 -0 -85.557 -71.097 -120.27 -67.263 -35.685 -104.75 -0 0 -0 -0 0 -0 -145.79 -72.113 -94.797 130.9 -40.361 90.582 -0 0 -0 -0 0 -0 -0 0 -0 -0 0 -0 -0 0 -0 -0 0 -0 -0 0 -0 -0 0 -0 -0 0 -0 -0 0 -0 -0 0 -0 -0 0 -0 -0 0 -0 -0 0 -0 -0 0 -0 
